Coordinates
version=1
nRows=15
nColumns=63
inDegrees=yes

Units are S.I. units (second, meters, Newtons, ...)
If the header above contains a line with 'inDegrees', this indicates whether rotational values are in degrees (yes) or radians (no).

endheader
time	pelvis_tilt	pelvis_list	pelvis_rotation	pelvis_tx	pelvis_ty	pelvis_tz	hip_flexion_r	hip_adduction_r	hip_rotation_r	knee_angle_r	knee_angle_r_beta	ankle_angle_r	subtalar_angle_r	mtp_angle_r	hip_flexion_l	hip_adduction_l	hip_rotation_l	knee_angle_l	knee_angle_l_beta	ankle_angle_l	subtalar_angle_l	mtp_angle_l	L5_S1_Flex_Ext	L5_S1_Lat_Bending	L5_S1_axial_rotation	L4_L5_Flex_Ext	L4_L5_Lat_Bending	L4_L5_axial_rotation	L3_L4_Flex_Ext	L3_L4_Lat_Bending	L3_L4_axial_rotation	L2_L3_Flex_Ext	L2_L3_Lat_Bending	L2_L3_axial_rotation	L1_L2_Flex_Ext	L1_L2_Lat_Bending	L1_L2_axial_rotation	L1_T12_Flex_Ext	L1_T12_Lat_Bending	L1_T12_axial_rotation	Abs_r3	Abs_r2	Abs_r1	Abs_t1	Abs_t2	neck_flexion	neck_bending	neck_rotation	arm_flex_r	arm_add_r	arm_rot_r	elbow_flex_r	pro_sup_r	wrist_flex_r	wrist_dev_r	arm_flex_l	arm_add_l	arm_rot_l	elbow_flex_l	pro_sup_l	wrist_flex_l	wrist_dev_l
0.000000	-0.464083	-2.716893	94.656951	0.267460	0.768357	0.629432	-2.236093	-0.119751	6.356620	0.966127	0.016862	29.103749	-5.903289	0.000000	5.449301	-0.351866	2.085864	12.043786	0.210204	39.637624	10.526403	0.000000	0.303456	-0.337480	-0.531331	0.563549	-0.448849	-0.564539	0.498548	-0.820549	-0.564539	0.346820	-0.820549	-0.464914	0.281790	-0.688190	-0.431706	0.173395	-0.522757	-0.398498	2.167558	-3.817643	-2.955102	0.000000	0.000000	14.507514	8.840202	-2.795700	24.043783	-3.858331	82.337877	36.879549	28.603442	2.196221	2.505895	15.833514	-9.715002	57.083662	39.335055	72.747791	3.651759	-4.762627
0.016667	0.019340	-2.603479	95.362070	0.264271	0.768103	0.629614	-2.252400	0.278711	6.445669	1.032208	0.018015	28.674407	-7.209587	0.000000	5.368436	-0.638212	3.250031	11.883553	0.207407	39.502877	10.001751	0.000000	0.288149	-0.220449	-0.840741	0.535122	-0.293197	-0.893288	0.473400	-0.535999	-0.893288	0.329325	-0.535999	-0.735649	0.267575	-0.449539	-0.683102	0.164648	-0.341475	-0.630556	2.058219	-2.493762	-4.675951	0.000000	0.000000	15.060373	8.480365	-0.067631	24.911911	-4.113955	85.839512	37.023128	22.690635	1.944227	2.497055	15.096859	-9.697221	55.082387	40.099876	76.981228	2.271350	-5.587258
0.033333	0.431656	-2.505931	95.933465	0.261612	0.767837	0.629969	-2.262673	0.620151	6.564915	1.084408	0.018926	28.334466	-8.323340	0.000000	5.267659	-0.886042	4.254728	11.641553	0.203183	39.355142	9.548495	0.000000	0.274560	-0.119874	-1.080406	0.509886	-0.159432	-1.147932	0.451075	-0.291462	-1.147932	0.313795	-0.291462	-0.945355	0.254957	-0.244447	-0.877830	0.156884	-0.185685	-0.810305	1.961158	-1.356038	-6.008895	0.000000	0.000000	15.473028	8.086007	2.132568	25.605034	-4.350305	88.644869	37.053873	19.007561	1.742713	2.469535	14.648342	-9.599114	53.957395	40.554251	80.478906	1.075375	-6.226255
0.050000	0.778259	-2.423734	96.382983	0.259442	0.767562	0.630474	-2.265682	0.908705	6.702226	1.126065	0.019654	28.078302	-9.249827	0.000000	5.152340	-1.098383	5.105481	11.332785	0.197794	39.200217	9.168162	0.000000	0.262636	-0.034612	-1.256841	0.487741	-0.046034	-1.335394	0.431484	-0.084155	-1.335394	0.300166	-0.084155	-1.099736	0.243883	-0.070580	-1.021183	0.150070	-0.053614	-0.942631	1.875980	-0.391536	-6.990172	0.000000	0.000000	15.763192	7.666209	3.849747	26.139353	-4.567502	90.817218	36.985822	17.334814	1.583171	2.422152	14.454697	-9.431662	53.605500	40.733404	83.302639	0.056490	-6.696153
0.066667	1.064541	-2.356369	96.722470	0.257720	0.767281	0.631108	-2.260199	1.148507	6.845468	1.160515	0.020255	27.900291	-9.994327	0.000000	5.027850	-1.278264	5.807814	10.972247	0.191502	39.043901	8.862280	0.000000	0.252320	0.036481	-1.376561	0.468583	0.048520	-1.462596	0.414536	0.088700	-1.462596	0.288376	0.088700	-1.204491	0.234304	0.074392	-1.118456	0.144175	0.056509	-1.032421	1.802294	0.412681	-7.656021	0.000000	0.000000	15.948572	7.230052	5.128751	26.531064	-4.765667	92.419830	36.833016	17.452989	1.457091	2.353723	14.482658	-9.205842	53.923516	40.672561	85.514238	-0.792649	-7.013487
0.083333	1.295896	-2.303321	96.963773	0.256405	0.766994	0.631849	-2.244993	1.343694	6.982510	1.191093	0.020789	27.794810	-10.562117	0.000000	4.899559	-1.428712	6.367253	10.574938	0.184567	38.891991	8.632375	0.000000	0.243557	0.094548	-1.446083	0.452310	0.125749	-1.536463	0.400140	0.229885	-1.536463	0.278362	0.229885	-1.265323	0.226167	0.192803	-1.174943	0.139169	0.146455	-1.084562	1.739705	1.069549	-8.042681	0.000000	0.000000	16.046880	6.786617	6.014431	26.796368	-4.944919	93.515977	36.609495	19.142680	1.355962	2.263065	14.698960	-8.932633	54.808258	40.406945	87.175518	-1.479388	-7.194791
0.100000	1.477717	-2.264074	97.118740	0.255454	0.766705	0.632674	-2.218835	1.498400	7.101220	1.221138	0.021313	27.756232	-10.958476	0.000000	4.772839	-1.552758	6.789322	10.155855	0.177253	38.750287	8.479975	0.000000	0.236294	0.140733	-1.471922	0.438821	0.187175	-1.563917	0.388207	0.342179	-1.563917	0.270060	0.342179	-1.287932	0.219422	0.286984	-1.195937	0.135018	0.217996	-1.103942	1.687822	1.592005	-8.186389	0.000000	0.000000	16.075824	6.344987	6.551632	26.951462	-5.105380	94.168928	36.329297	22.184481	1.271277	2.148996	15.070338	-8.623015	56.156541	39.971781	88.348290	-2.011070	-7.256599
0.116667	1.615396	-2.238110	97.199216	0.254828	0.766414	0.633563	-2.180495	1.616762	7.189464	1.253983	0.021886	27.778934	-11.188682	0.000000	4.653059	-1.653428	7.079548	9.729997	0.169820	38.624587	8.406607	0.000000	0.230474	0.176180	-1.460594	0.428013	0.234320	-1.551881	0.378645	0.428364	-1.551881	0.263409	0.428364	-1.278020	0.214018	0.359266	-1.186733	0.131693	0.272903	-1.095445	1.646251	1.992984	-8.123385	0.000000	0.000000	16.053115	5.914243	6.785204	27.012546	-5.247170	94.441956	36.006464	26.358988	1.194524	2.010334	15.563526	-8.287965	57.865178	39.402293	89.094367	-2.395040	-7.215445
0.133333	1.714327	-2.224912	97.217048	0.254485	0.766123	0.634493	-2.128743	1.702914	7.235110	1.292967	0.022567	27.857293	-11.258014	0.000000	4.545590	-1.733752	7.243454	9.312363	0.162531	38.520689	8.413798	0.000000	0.226043	0.202032	-1.418614	0.419784	0.268702	-1.507278	0.371365	0.491220	-1.507278	0.258344	0.491220	-1.241288	0.209903	0.411983	-1.152624	0.129161	0.312947	-1.063961	1.614600	2.285425	-7.889907	0.000000	0.000000	15.996463	5.503466	6.759994	26.995818	-5.370409	94.398330	35.655034	31.446795	1.117194	1.845895	16.145259	-7.938463	59.830984	38.733706	89.475561	-2.638643	-7.087865
0.150000	1.779902	-2.223965	97.184084	0.254383	0.765835	0.635443	-2.062352	1.760993	7.226025	1.341425	0.023412	27.985682	-11.171750	0.000000	4.455803	-1.796757	7.286567	8.917951	0.155648	38.444391	8.503076	0.000000	0.222945	0.219432	-1.352499	0.414031	0.291845	-1.437030	0.366277	0.533528	-1.437030	0.254804	0.533528	-1.183437	0.207027	0.447466	-1.098905	0.127391	0.339901	-1.014374	1.592475	2.482262	-7.522194	0.000000	0.000000	15.923577	5.121738	6.520850	26.917476	-5.475219	94.101321	35.289047	37.228497	1.030778	1.654498	16.782272	-7.585488	61.950774	38.001244	89.553686	-2.749223	-6.890393
0.166667	1.817515	-2.234752	97.112169	0.254481	0.765552	0.636391	-1.980089	1.795134	7.150078	1.402693	0.024482	28.158479	-10.935169	0.000000	4.389068	-1.845473	7.214411	8.561759	0.149431	38.401492	8.675967	0.000000	0.221126	0.229525	-1.268764	0.410654	0.305268	-1.348062	0.363289	0.558067	-1.348062	0.252725	0.558067	-1.110168	0.205338	0.468047	-1.030871	0.126352	0.355534	-0.951573	1.579484	2.596432	-7.056484	0.000000	0.000000	15.852168	4.778140	6.112620	26.793719	-5.561720	93.614201	34.922544	43.484687	0.926765	1.434959	17.441299	-7.240017	64.121362	37.240131	89.390554	-2.734125	-6.639563
0.183333	1.862794	-2.258611	97.012877	0.254689	0.765266	0.637343	-1.859919	1.837583	6.880165	1.499820	0.026177	28.407573	-10.377518	0.000000	4.385365	-1.914927	6.951821	8.328863	0.145366	38.442723	9.011683	0.000000	0.218568	0.239143	-1.191326	0.405902	0.318061	-1.265784	0.359085	0.581453	-1.265784	0.249801	0.581453	-1.042410	0.202962	0.487661	-0.967952	0.124890	0.370433	-0.893495	1.561209	2.705239	-6.625798	0.000000	0.000000	15.860864	4.507288	5.791796	26.773874	-5.605474	93.352849	34.586121	49.869602	0.638671	1.105025	17.948411	-6.960500	65.820511	36.621830	89.044575	-2.519450	-6.249856
0.200000	1.885404	-2.304791	96.931787	0.254978	0.764980	0.638262	-1.700427	1.855330	6.379087	1.634713	0.028531	28.704635	-9.570200	0.000000	4.447324	-1.971967	6.530785	8.202734	0.143165	38.540472	9.522474	0.000000	0.218868	0.241653	-1.108695	0.406459	0.321399	-1.177988	0.359578	0.587556	-1.177988	0.250144	0.587556	-0.970108	0.203241	0.492779	-0.900814	0.125061	0.374321	-0.831521	1.563350	2.733629	-6.166227	0.000000	0.000000	15.951694	4.299158	5.299146	26.689405	-5.638084	92.951609	34.297706	56.331704	0.364310	0.805660	18.471675	-6.692282	67.502464	35.980802	88.571913	-2.192458	-5.980421
0.216667	1.906372	-2.365242	96.832242	0.255347	0.764685	0.639110	-1.500844	1.866246	5.864842	1.819601	0.031758	28.992752	-8.766059	0.000000	4.558634	-2.033416	5.998761	8.178498	0.142742	38.714280	10.109279	0.000000	0.221051	0.242043	-1.026767	0.410515	0.321918	-1.090940	0.363165	0.588504	-1.090940	0.252640	0.588504	-0.898421	0.205268	0.493575	-0.834248	0.126309	0.374925	-0.770075	1.578949	2.738042	-5.710570	0.000000	0.000000	16.120967	4.150610	4.798567	26.599508	-5.666745	92.498521	34.072365	63.546941	-0.058527	0.317604	18.896291	-6.438941	68.807247	35.419929	88.242429	-1.722081	-5.723322
0.233333	1.916816	-2.438978	96.740268	0.255743	0.764404	0.639843	-1.277080	1.862663	5.262331	2.035082	0.035519	29.283624	-7.885301	0.000000	4.707537	-2.080515	5.467055	8.236165	0.143748	38.928700	10.671343	0.000000	0.225661	0.239011	-0.950191	0.419075	0.317885	-1.009578	0.370738	0.581132	-1.009578	0.257908	0.581132	-0.831417	0.209549	0.487392	-0.772030	0.128943	0.370228	-0.712643	1.611873	2.703743	-5.284676	0.000000	0.000000	16.348981	4.073495	4.274740	26.476433	-5.695617	91.942052	33.891559	70.469967	-0.428110	-0.182106	19.240414	-6.225679	69.860896	34.950141	87.973713	-1.235694	-5.540492
